<svg xmlns="http://www.w3.org/2000/svg" viewBox="0 0 627 199.13"><path d="M491.1,85.61c-13.1,0-22.9,9.9-22.9,24.1,0,13.7,10.1,24.1,22.9,24.1,14.4,0,23-10.6,23-24.1C514.1,95.51,504.1,85.61,491.1,85.61Z" style="fill:#008DD0"/><path d="M433.7,94.91c0-5.6-4.3-8.5-10.8-8.5-2.7,0-5.4.1-7.5,0.3V104h8.1C429.1,104,433.7,101.11,433.7,94.91Z" style="fill:#008DD0"/><path d="M423.9,114.51h-8.5v18.1a66.37,66.37,0,0,0,7.9.5c8.1,0,12.5-3.4,12.5-9.9C435.8,117.41,431.4,114.51,423.9,114.51Z" style="fill:#008DD0"/><path d="M602.2,26H390a24.86,24.86,0,0,0-24.8,24.8v110.6a24.86,24.86,0,0,0,24.8,24.8H602.2a24.86,24.86,0,0,0,24.8-24.8V50.91A25,25,0,0,0,602.2,26ZM421.4,142.21c-6.3,0-15.1-.2-19.1-0.5V73.51c3.8-.2,12.9-0.5,19.8-0.5,16.3,0,22.5,7.4,22.5,16.9,0,7.8-3.9,12.8-9.8,15.6v0.2c6.8,1.7,12,6.9,12,16C446.8,135.71,435.8,142.21,421.4,142.21Zm69.7,2.8c-20.4,0-35.6-14-35.6-35.3,0-19.9,14.6-35.3,35.6-35.3,20.4,0,35.7,14,35.7,35.3C526.9,130.21,511.5,145,491.1,145Zm83.6-1.1L557,118.21l-17.6,25.7H525.3l24-34.9-22.9-33.5h14.1l16.8,24.7,16.5-24.7h14.1L564.8,109l24,34.9H574.7Z" style="fill:#008DD0"/><path d="M47.2,102.11l2.4-8.2L71.2,1.71h0A2.34,2.34,0,0,1,72.8.11a2.5,2.5,0,0,1,3.1,1.5l43.9,142.2,30.3-95.4a2.15,2.15,0,0,1,1.7-1.6,2.42,2.42,0,0,1,3,1.7L165,101c7.5,0.5,21.3.9,31.7,1.3V93h-6.2c-0.1-.5-0.2-1.1-0.3-1.7a12.75,12.75,0,0,1-.1-1.9,12.1,12.1,0,0,1,.1-1.9c0.1-.7.2-1.2,0.3-1.7h15.1v17c4,0.2,8.2.3,12.5,0.4v5.5H205.6v24.9c-0.7.1-1.4,0.2-2.3,0.3a25.35,25.35,0,0,1-4.5,0l-2.3-.3v-25H162a2.47,2.47,0,0,1-2.3-1.6l-5.1-22.9-32.8,113.3h0a2.34,2.34,0,0,1-1.6,1.6,2.47,2.47,0,0,1-3.1-1.6l-46-154.7L52.6,107h0c0,0.1-.1.2-0.1,0.3a2.58,2.58,0,0,1-2.5,1.3l-50-.2c5.4-.3,46.8-5,47.2-6.3h0Z" style="fill:#fff"/><path d="M349.1,99.81a22.83,22.83,0,0,0-4.1-7.9,20.61,20.61,0,0,0-7-5.3,25,25,0,0,0-19.6,0,20.61,20.61,0,0,0-7,5.3,21.25,21.25,0,0,0-4.1,7.9,34.67,34.67,0,0,0-1.1,5.6c-6.9-.1-13.9-0.3-21-0.4a20.52,20.52,0,0,1,.7-3.1,11.85,11.85,0,0,1,2.9-4.8,10.34,10.34,0,0,1,4.1-2.5,15.07,15.07,0,0,1,4.8-.7H299a7.72,7.72,0,0,1,1.5.2c0.1-.7.2-1.5,0.3-2.3a18.48,18.48,0,0,0,.1-2.3,13.4,13.4,0,0,0-.1-2c-0.1-.7-0.2-1.2-0.3-1.8a5.72,5.72,0,0,0-1.4-.1h-1.5a13.73,13.73,0,0,0-8.2,2.3,20.82,20.82,0,0,0-5.2,5.5,31.39,31.39,0,0,0-.3-3.9c-0.2-1.5-.4-2.7-0.6-3.7-0.6-.1-1.2-0.2-1.9-0.3a14.08,14.08,0,0,0-2-.1,13.4,13.4,0,0,0-2,.1l-2,.3v19l-12.6-.3a26.55,26.55,0,0,0-1.3-6.7,19.53,19.53,0,0,0-4.1-7.4,14.81,14.81,0,0,0-6.2-4.3,22.61,22.61,0,0,0-7.9-1.4,17.63,17.63,0,0,0-8.6,2,14.35,14.35,0,0,0-5.2,4.8V65.21l-2.3-.3a26.5,26.5,0,0,0-4.6,0l-2.3.3V132a45.76,45.76,0,0,0,7.3,1.8,49.64,49.64,0,0,0,8.4.8c8.7,0,15.3-2.3,20-6.9s6.9-11,6.9-19.1h12.6v24.9q1.05,0.15,2.4.3a18.48,18.48,0,0,0,2.3.1,19.3,19.3,0,0,0,2.3-.1l2.3-.3v-24.8h21.1v1.1a35.35,35.35,0,0,0,1.3,9.9,22.83,22.83,0,0,0,4.1,7.9,20.61,20.61,0,0,0,7,5.3,26.22,26.22,0,0,0,19.6,0,19.42,19.42,0,0,0,7-5.3,21.25,21.25,0,0,0,4.1-7.9,34.38,34.38,0,0,0,1.3-9.9A31.56,31.56,0,0,0,349.1,99.81Zm-97,17.1a15.56,15.56,0,0,1-3.4,5.6,13.63,13.63,0,0,1-5.1,3.3,19.11,19.11,0,0,1-6.4,1.1c-1.4,0-2.7-.1-4-0.2a19,19,0,0,1-3.6-.8v-20a16.37,16.37,0,0,1,1.1-6.2,11.44,11.44,0,0,1,2.8-4.1,10.88,10.88,0,0,1,3.9-2.2,12.34,12.34,0,0,1,4.2-.7c4.2,0,7.1,1.4,8.9,4.3a18.43,18.43,0,0,1,2.4,7.4l-21-.6v5h21.3V109A18.28,18.28,0,0,1,252.1,116.91Zm85.6,5.7c-2,3.1-5.2,4.7-9.5,4.7s-7.4-1.6-9.5-4.7-3-7.4-3-12.9v-1.1h22.8l-0.2-2.7-22.4-.3a19.87,19.87,0,0,1,2.8-8.8c2-3.1,5.2-4.6,9.5-4.6s7.4,1.5,9.5,4.6,3.1,7.4,3.1,12.9S339.7,119.51,337.7,122.61Z" style="fill:#fff"/><path d="M194.5,75.21l2.6,0.3a22.63,22.63,0,0,0,2.5.1,20.93,20.93,0,0,0,2.4-.1l2.5-.3a17.91,17.91,0,0,0,.2-2.4v-4.6a15.16,15.16,0,0,0-.2-2.3c-0.7-.1-1.6-0.2-2.5-0.3a28.85,28.85,0,0,0-4.8,0l-2.6.3a16.41,16.41,0,0,0-.2,2.3v4.6A9.46,9.46,0,0,0,194.5,75.21Z" style="fill:#fff"/><polygon points="365.2 108.71 352.8 108.81 352.6 106.31 365.2 106.41 365.2 108.71" style="fill:#fff"/></svg>
