<svg xmlns="http://www.w3.org/2000/svg"><defs><style>.cls-1,.cls-2,.cls-3{fill:none;stroke:#0888c7;stroke-miterlimit:10;}.cls-1,.cls-3{stroke-width:2px;}.cls-3{fill-rule:evenodd;}</style></defs><title>sprite2</title><g id="Layer_2" data-name="Layer 2"><g id="Isolation_Mode" data-name="Isolation Mode"><path class="cls-1" d="M46.08,23A14.85,14.85,0,1,0,60.93,37.84,14.86,14.86,0,0,0,46.08,23Zm0,25A10.14,10.14,0,1,1,56.22,37.84,10.15,10.15,0,0,1,46.08,48Zm0,0"/><path class="cls-1" d="M33.67,19.53H22.16L28.08,3.88a2,2,0,0,0-1.88-2.72H12a2,2,0,0,0-1.88,1.3l-9,23.87A2,2,0,0,0,3,29.05l16,.08L11,50.1a1,1,0,0,0,1.59,1L23.71,38.74c0-.2,0-.4,0-.6a22.38,22.38,0,0,1,10-18.61Zm0,0"/><path class="cls-2" d="M45.66,30.71a1.23,1.23,0,0,0-1.15.78L40.73,41.2A1.2,1.2,0,1,0,43,42l.66-1.81a.24.24,0,0,1,.23-.16h4.51a.24.24,0,0,1,.23.16l.7,1.81a1.23,1.23,0,1,0,2.29-.9l-3.87-9.67a1.23,1.23,0,0,0-1.14-.77ZM44.79,38a.24.24,0,0,1-.23-.32l1.29-3.56a.24.24,0,0,1,.45,0l1.32,3.56a.24.24,0,0,1-.23.33Zm0,0"/><path class="cls-3" d="M114.73,19.5h4.49v21h-4.49v-21ZM93.4,24.08h2.69v.54a.57.57,0,0,0,.57.57h0a.57.57,0,0,0,.57-.57v-.54h1.1v.54a.57.57,0,0,0,.57.57h0a.57.57,0,0,0,.57-.57v-.54h1.21v.54a.57.57,0,0,0,.57.57h0a.57.57,0,0,0,.57-.57v-.54h1.29v.54a.57.57,0,0,0,.57.57h0a.57.57,0,0,0,.57-.57v-.54h1.11v.54a.57.57,0,0,0,.57.57h0a.57.57,0,0,0,.57-.57v-.54h2.69A1.93,1.93,0,0,1,111.09,26v8.16a1.93,1.93,0,0,1-1.92,1.92h-2.69v-.38a.57.57,0,0,0-.57-.57h0a.57.57,0,0,0-.57.57v.38h-1.11v-.38a.57.57,0,0,0-.57-.57h0a.57.57,0,0,0-.57.57v.38H101.8v-.38a.57.57,0,0,0-.57-.57h0a.57.57,0,0,0-.57.57v.38H99.46v-.38a.57.57,0,0,0-.57-.57h0a.57.57,0,0,0-.57.57v.38h-1.1v-.38a.57.57,0,0,0-.57-.57h0a.57.57,0,0,0-.57.57v.38H93.4a1.93,1.93,0,0,1-1.92-1.92V26a1.93,1.93,0,0,1,1.92-1.92ZM99.85,12.3l-.18,1c-5.23-.37-5.86,2.32-5.82,8.55,0,.54,0,1.09,0,1.38h-1c0-.69,0-1,0-1.38,0-3.63-.53-10.39,7-9.54ZM100.61,38h1.3v1.9h-1.3V38Zm-5.69-1.05c0,7.56-3,4.57-2.91,7.56h18.53c-.21-2.5-2.91,0-2.91-7.56h-1.71V40.5H96.66V36.91Zm8.32-27c2.16-.53,4.55,1.56,5.53,4.74l-8.2,2c-.62-3.27.52-6.24,2.68-6.77Zm-3.72,7.94.44,1.77L110.66,17l-.44-1.77L99.51,17.87Zm5.9,27.35h5.18v1.12h-5.18V45.23ZM92,45.23h5.18v1.12H92V45.23ZM82.35,26h-1V34h1V26Zm37.77,0h1V34h-1V26ZM90.47,26H88.74V34h1.73V26ZM112,26h1.73V34H112V26ZM87.74,19.5H83.25v21h4.49Z"/><circle class="cls-1" cx="100.92" cy="31" r="30"/><line class="cls-1" x1="82.35" y1="7.45" x2="122.48" y2="52.38"/><path class="cls-1" d="M162.13,34.86H144.68a.74.74,0,0,1-.74-.74V5.74a.74.74,0,0,1,.74-.74h41.83a.74.74,0,0,1,.74.74V12a7.52,7.52,0,0,1,3.35,1.21V5.74a4.09,4.09,0,0,0-4.08-4.08H144.68a4.09,4.09,0,0,0-4.08,4.08V34.12a4.09,4.09,0,0,0,4.08,4.09h14v5.48h-2.21a2.51,2.51,0,1,0,0,5h7.05a7.53,7.53,0,0,1-1.41-4.38Zm0,0"/><path class="cls-1" d="M175.19,46.18V42.56h-6.36V19.45a.88.88,0,0,1,.88-.88h16.65a.88.88,0,0,1,.88.88V25.6h1.25a4.13,4.13,0,0,1,2.09.58V19.45a4.24,4.24,0,0,0-4.23-4.23H169.71a4.24,4.24,0,0,0-4.23,4.23V44.33a4.24,4.24,0,0,0,4.23,4.23h6.23A4.43,4.43,0,0,1,175.19,46.18Zm0,0"/><path class="cls-1" d="M188.5,28.69h-8.12a2.1,2.1,0,0,0-2.1,2.1V46.18a2.1,2.1,0,0,0,2.1,2.1h8.12a2.1,2.1,0,0,0,2.1-2.1V30.79a2.1,2.1,0,0,0-2.1-2.1Zm-7.19,3.51h6.34V42.45h-6.34Zm3.27,13.57a.42.42,0,0,1-.42-.42.41.41,0,1,1,.83,0,.42.42,0,0,1-.41.42Zm-.14,1.48"/><path class="cls-1" d="M253.07,47.81H214.61V9.35H243l2.4-3.85H214.61a3.85,3.85,0,0,0-3.85,3.85V47.81a3.84,3.84,0,0,0,3.85,3.83h38.46a3.84,3.84,0,0,0,3.85-3.83V22.4l-3.85,6.18Zm0,0"/><path class="cls-1" d="M259.55,2.08a2.85,2.85,0,0,0-1.48-.43,2.72,2.72,0,0,0-2.25,1.22L234.91,33l-8.09-9.24a2.7,2.7,0,0,0-3.66,4l9.73,11.1.24.26.25.28.1.05.21.21.52.25.11.06.83.13h0a2.65,2.65,0,0,0,2-.85l.23-.36,0,0L260.32,5.82a2.71,2.71,0,0,0-.77-3.74Zm0,0"/></g></g></svg>