<svg xmlns="http://www.w3.org/2000/svg" width="485" height="80" viewBox="0 0 481.8 82.14"><defs><style>.cls-1,.cls-2,.cls-3,.cls-4{fill:none;stroke:#388ccd;stroke-miterlimit:10;}.cls-1,.cls-2{stroke-width:2px;}.cls-2,.cls-3{fill-rule:evenodd;}</style></defs><title>sprite</title><g id="Layer_2" data-name="Layer 2"><g id="Layer_2-2" data-name="Layer 2"><path class="cls-1" d="M1,43.86V65.17H6.79v2.48H20.22V65.17H61.78v2.48H75.21V65.17H81V43.86ZM21.48,60.69H6.79V58.22H21.48Zm0-4.94H6.79V53.28H21.48Zm0-4.94H6.79V48.34H21.48ZM41,60.69H26.31V58.22H41Zm0-4.94H26.31V53.28H41Zm0-4.94H26.31V48.34H41Z"/><polygon class="cls-1" points="21.48 13.04 21.48 19.97 20.22 19.97 20.22 31.09 25.95 31.09 25.95 19.97 24.69 19.97 24.69 13.04 21.48 13.04"/><path class="cls-1" d="M8.09,33a7.51,7.51,0,0,1,5-1.93h4.62V10.52H29.3l3.13,11h3.13V20h2.09l.83,1.26h.47V20h.56l.83,1.26h.47V20h.56l.83,1.26h.47V20h.56l.83,1.26h.47V20h.56l.83,1.26h.47V20H47l.83,1.26h.47V20h.56l.83,1.26h.47V20h.56l.83,1.26H52V20h.56l.83,1.26h.47V20h.56l.83,1.26h.47V20h.56l.83,1.26h.47V20h.56L59,21.23h.47V20H60l.83,1.26h.47V20h1.53v1.55H66l3.13-11h3.52V1H2.73V16.81L8.09,29.27Zm27.47-22.5H62.84v6.93H35.56Z"/><path class="cls-1" d="M8.09,38.64v2.71H72.62V33.61h-3.5V30.3h-10l-2.47-3.19H53.39V30.3H43.14V27.12H39.88L37.41,30.3H28.55v3.3H13.11A5,5,0,0,0,8.09,38.64Zm53.85-3.82a2.17,2.17,0,0,1,2.42-.44l1-1,1.09,1.09-1,1a2.17,2.17,0,1,1-3.51-.64Zm-7.21,0a2.17,2.17,0,0,1,2.42-.44l1-1,1.09,1.09-1,1a2.17,2.17,0,1,1-3.51-.64Zm-7.21,0a2.17,2.17,0,0,1,2.42-.44l1-1L52,34.46l-1,1a2.17,2.17,0,1,1-3.51-.64Zm-33.18,2.7a1.57,1.57,0,1,1-1.57-1.57A1.57,1.57,0,0,1,14.33,37.52Z"/><path class="cls-1" d="M139.53,2.24V6.64a2.08,2.08,0,0,1,.47,0l28.65,5.73a2.4,2.4,0,0,1-.47,4.76,2.56,2.56,0,0,1-.48,0l-28.18-5.63v2.66a2.32,2.32,0,0,1,.39,0l28.65,4.67a2.41,2.41,0,0,1-.39,4.78,2.46,2.46,0,0,1-.39,0l-28.27-4.61V21a2.09,2.09,0,0,1,.35,0l28.65,4.17a2.4,2.4,0,0,1-.34,4.78l-.35,0-28.31-4.12v2.42a2,2,0,0,1,.28,0l28.65,3.37a2.41,2.41,0,0,1-.28,4.79l-.28,0L139.53,33V66.37h32.06V8.66Zm26.71,41.68a2,2,0,1,1,2-2A2,2,0,0,1,166.24,43.92Z"/><path class="cls-1" d="M112.28,36.17c.58,0,1.17-.05,1.75-.05,7.56,0,15.7,2.58,15.7,8.23V64.26a5.41,5.41,0,0,1-.43,2.11h8.63V2.24L112.28,15.07Z"/><path class="cls-1" d="M114,56.79c-6.87,0-12.44-2.22-12.44-5v5c0,2.75,5.57,5,12.44,5s12.44-2.23,12.44-5v-5C126.47,54.57,120.9,56.79,114,56.79Z"/><path class="cls-1" d="M114,64.26c-6.87,0-12.44-2.23-12.44-5v5c0,2.75,5.57,5,12.44,5s12.44-2.23,12.44-5v-5C126.47,62,120.9,64.26,114,64.26Z"/><path class="cls-1" d="M114,39.38c-6.87,0-12.44,2.22-12.44,5v5c0,2.75,5.57,5,12.44,5s12.44-2.23,12.44-5v-5C126.47,41.6,120.9,39.38,114,39.38Zm0,8.71c-6.84,0-11.2-2.21-11.2-3.73s4.36-3.73,11.2-3.73,11.19,2.21,11.19,3.73S120.86,48.08,114,48.08Z"/><path class="cls-2" d="M205.21,50h53.69l2.31,3.28H201.46V5.68h3.75V50ZM238.06,5.89A21.43,21.43,0,0,0,260.29,42.4l1.64,2.31-.25.18a2.89,2.89,0,0,0-.68,4L271.07,63a2.89,2.89,0,0,0,4,.68L280.25,60a2.89,2.89,0,0,0,.68-4L270.86,41.89a2.9,2.9,0,0,0-4-.68l-.11.08L265.11,39a21.43,21.43,0,0,0-27-33.13ZM252.9,9a14.51,14.51,0,1,0,9.41,5.89A14.46,14.46,0,0,0,252.9,9Z"/><path class="cls-3" d="M262.59,18.21l-11.43,5L247,17.35l-1.2-1.67L244.22,17l-6.44,5.63c0,.15,0,.3,0,.45a12.93,12.93,0,0,0,.63,4l6.73-5.89,3.88,5.4.88,1.22,1.38-.6,12.23-5.32a12.84,12.84,0,0,0-.91-3.68Z"/><path class="cls-3" d="M260.62,31.3V27.22l-3.1,1.35V34a13.07,13.07,0,0,0,3.1-2.73Z"/><path class="cls-3" d="M253,35.78V30.53l-3.1,1.35V36l.75,0a12.76,12.76,0,0,0,2.35-.22Z"/><path class="cls-3" d="M245.41,34.88V28l-.91-1.27-2.18,1.91v4.29a12.83,12.83,0,0,0,3.1,2Z"/><path class="cls-3" d="M215.74,48.42h2V31.5l-.76-1.09-1.19.76V48.42Z"/><path class="cls-3" d="M207.9,30.55l1.25,2,8.42-5.33,2.95,4.23.71,1,1-.75L227,28a24.14,24.14,0,0,1-.38-2.67l-4.91,3.76-2.88-4.14-.64-.93-1,.6-9.37,5.93Z"/><polygon class="cls-3" points="210.94 48.43 212.89 48.43 212.89 32.98 210.94 34.21 210.94 48.43 210.94 48.43"/><path class="cls-3" d="M220.53,48.42h2v-14l-1.78,1.36-.18-.25V48.42Z"/><path class="cls-3" d="M225.32,48.42h2V30.8l-2,1.49V48.42Z"/><path class="cls-3" d="M230.12,48.42h2V38.57c-.35-.42-.69-.87-1-1.32s-.65-.94-.94-1.43v12.6Z"/><path class="cls-3" d="M234.91,48.42h2V43a23.29,23.29,0,0,1-2-1.52v6.93Z"/><path class="cls-3" d="M239.71,48.42h2v-2.8c-.67-.27-1.32-.57-2-.89v3.69Z"/><path class="cls-3" d="M244.5,48.42h2V47q-1-.18-2-.43v1.84Z"/><path class="cls-3" d="M249.29,48.42h2v-1q-1,0-2,0v1.07Z"/><path class="cls-3" d="M254.09,48.42h2v-1.6c-.65.15-1.3.26-2,.35Z"/><path class="cls-2" d="M330.16,37.15h0a2.88,2.88,0,0,0,.79,4L338.24,46a2.22,2.22,0,0,0-1.59.95h0a2.39,2.39,0,0,0,.1,2.64,2.18,2.18,0,0,0-1.38.91h0a2.47,2.47,0,0,0,.38,3,2.12,2.12,0,0,0-.94.78h0a2.6,2.6,0,0,0,1,3.51l7.9,5.28a3,3,0,0,0,2,.51h0l6.05-1.55L360,67.78l6.25-9.36-8.4-5.83-.52-6.9-5.12-3.42-.42-.29-6.53-4.36s-1.83-1.3-3.09-1a4.89,4.89,0,0,0-2.32,1.51l5.94,4-1.15,1.27-10.46-7a2.88,2.88,0,0,0-4,.79ZM301.28,10.58a8.76,8.76,0,0,1,2.58-6.19h0a8.76,8.76,0,0,1,6.19-2.57H372.5a8.76,8.76,0,0,1,6.19,2.57h0a8.76,8.76,0,0,1,2.58,6.19V47a8.76,8.76,0,0,1-2.58,6.19h0c-1.24,1.23-7.56,2.1-9.34,2.43l-7.26-5-.12-1.5L368.2,49a2,2,0,0,0,1.41-.58h0A2,2,0,0,0,370.2,47V9.4A2,2,0,0,0,369.63,8h0a2,2,0,0,0-1.41-.58H309.5a2,2,0,0,0-1.41.58h0a2,2,0,0,0-.58,1.41V47.82a2,2,0,0,0,.58,1.41h0a2,2,0,0,0,1.41.58h21.23a42.42,42.42,0,0,0-1,6H310.05a8.76,8.76,0,0,1-6.19-2.57h0A8.76,8.76,0,0,1,301.28,47Z"/><polygon class="cls-3" points="310.82 28.77 317.13 27.77 318.97 23.29 319.17 22.8 319.62 22.55 328.78 17.53 329.68 17.04 330.45 17.71 334.46 21.2 347.3 19.82 353.78 13.95 354.09 13.67 354.51 13.59 363.47 11.96 363.99 14.86 355.44 16.41 348.91 22.32 348.55 22.65 348.08 22.7 334.14 24.2 333.5 24.27 333.02 23.84 329.3 20.61 321.5 24.89 319.55 29.66 319.24 30.42 318.41 30.55 311.27 31.68 310.82 28.77 310.82 28.77"/><polygon class="cls-3" points="357.51 19.47 363.37 19.47 363.37 45.66 360.87 45.66 360.72 43.76 357.51 41.61 357.51 19.47 357.51 19.47"/><path class="cls-3" d="M335.19,28.65v4.23a6.93,6.93,0,0,1,.73.43l1.7,1.14a8,8,0,0,1,3.21-1.52l.23,0V28.65Z"/><path class="cls-3" d="M324,27.35h5.86v5.13a7,7,0,0,0-1.72,12.42l1.14.76H324V27.35Z"/><polygon class="cls-3" points="312.88 33.73 318.74 33.73 318.74 45.66 312.88 45.66 312.88 33.73 312.88 33.73"/><path class="cls-3" d="M346.35,26.11h5.86v12L347,34.61q-.33-.23-.69-.45V26.11Z"/><path class="cls-2" d="M432.15,23.88l.29.18.25.17v.3a6.09,6.09,0,0,1-.34,2.33,2.31,2.31,0,0,1-1,1.22,8.14,8.14,0,0,1-2.34,3.7,5.62,5.62,0,0,1-7.87,0,8.13,8.13,0,0,1-2.34-3.68,2.26,2.26,0,0,1-1.05-1.21,6,6,0,0,1-.36-2.37v-.3l.25-.17.14-.09q0-.33-.08-.65-1.09-.24-2.18-.57V21.24h.9a7.41,7.41,0,0,1,4.27-6.43l1.14,5.46h1.12V14a9.44,9.44,0,0,1,3.88,0v6.2h1.12l1.12-5.38a7.38,7.38,0,0,1,4.11,6.35h1v1.49q-1,.26-1.95.47c0,.22,0,.45-.08.68ZM416,33.64h1v9.3h-4.11c.05-2.6.53-7,3.12-9.3Zm16.7-.13h1.14c2,1.93,3.34,6.47,3,9.43h-4.17V33.51Z"/><path class="cls-3" d="M430.6,23.62a39.38,39.38,0,0,1-10.93.23l-.74,1.22-1.34-.13-.19,0-.22.09a5.24,5.24,0,0,0,.32,1.86,1.26,1.26,0,0,0,.74.79l.36.11.1.36a8.22,8.22,0,0,0,2.44,4,5.27,5.27,0,0,0,7.46,0,8.23,8.23,0,0,0,2.43-4l.09-.35.34-.12a1.3,1.3,0,0,0,.72-.81,5.31,5.31,0,0,0,.31-1.84l-.2-.08h0a3.2,3.2,0,0,0-1.18.19l-.48-1.55Z"/><path class="cls-3" d="M419.84,34.11H420a7,7,0,0,0,9.88-.07v4.26h-10V34.11Z"/><rect class="cls-4" x="419.84" y="40.87" width="9.99" height="2.55"/><path class="cls-4" d="M464.79,61.3h-3a.2.2,0,0,1-.2-.2v-.73a.2.2,0,0,0-.2-.2h-4.17a.2.2,0,0,0-.2.2v.73a.2.2,0,0,1-.2.2h-2.24a.2.2,0,0,0-.2.2v.84a.2.2,0,0,0,.2.2h10.18a.2.2,0,0,0,.2-.2V61.5a.2.2,0,0,0-.2-.2Zm0,0"/><path class="cls-4" d="M469.8,40.66H448.52A1.34,1.34,0,0,0,447.18,42v3.5c0,.46,0,.53.28.53H448c.26,0,.21-.07.21-.54V42a.33.33,0,0,1,.33-.33H469.8a.33.33,0,0,1,.33.33V55.12H455s-.53,0-.53.69v1.64c0,.69.55.69.55.69H469.8a1.34,1.34,0,0,0,1.34-1.34V42a1.34,1.34,0,0,0-1.34-1.34ZM459.16,57a.61.61,0,1,1,.61-.61.61.61,0,0,1-.61.61Zm0,0"/><path class="cls-1" d="M451.35,48.24h-7.7a.87.87,0,0,0-.87.87V61.76a.87.87,0,0,0,.87.87h7.7a.87.87,0,0,0,.87-.87V49.1a.87.87,0,0,0-.87-.87Zm.12,12.46"/><path class="cls-4" d="M446.55,50h1.9a.16.16,0,0,1,0,.33h-1.9a.16.16,0,0,1,0-.33Z"/><path class="cls-4" d="M447.49,61.13a.45.45,0,1,1,.45-.45.45.45,0,0,1-.45.45Z"/><rect class="cls-4" x="444.71" y="51.48" width="5.46" height="7.52" rx="0.14" ry="0.14"/><line class="cls-4" x1="425.67" y1="60.56" x2="455.73" y2="23.62"/><circle class="cls-1" cx="440.73" cy="41.07" r="40.07"/></g></g></svg>